<?xml version="1.0" encoding="UTF-8"?>
<svg width="262px" height="63px" viewBox="0 0 262 63" version="1.1" xmlns="http://www.w3.org/2000/svg" xmlns:xlink="http://www.w3.org/1999/xlink">
    <title>编组</title>
    <defs>
        <polygon id="path-1" points="-1.42108547e-14 0 26.620694 0 26.620694 27.9907306 -1.42108547e-14 27.9907306"></polygon>
        <path d="M18.2989782,2.68622731 C14.0738687,6.22736413 0,26 0,26 L0,26 C0,26 21.9394582,15.5901328 26.1645678,12.048996 L26.1645678,12.048996 C30.3904146,8.50785919 30.906481,4.41960973 28.7751267,1.88359908 L28.7751267,1.88359908 C27.7628992,0.678184032 26.301694,0 24.5927769,0 L24.5927769,0 C22.7054483,0 20.5165894,0.827664335 18.2989782,2.68622731" id="path-3"></path>
        <linearGradient x1="0%" y1="50.0004727%" x2="99.9991756%" y2="50.0004727%" id="linearGradient-5">
            <stop stop-color="#4D4BE9" offset="0%"></stop>
            <stop stop-color="#28215D" offset="100%"></stop>
        </linearGradient>
        <path d="M54.7981146,0 C50.5859468,0.0087880462 44.8829555,0.690593964 38.6896785,3.30357303 L38.6896785,3.30357303 C38.957376,4.02785451 39.3655777,5.0025953 39.9712247,6.18312284 L39.9712247,6.18312284 C40.7728381,7.74373338 42.3006363,8.81733969 44.0569387,9.01507073 L44.0569387,9.01507073 C45.8280311,9.21426644 47.94151,9.78988347 49.2245351,11.3043568 L49.2245351,11.3043568 C50.5075602,12.8188301 50.7131401,14.9792248 50.6036947,16.7419604 L50.6036947,16.7419604 C50.4957283,18.4885845 51.2980812,20.1656367 52.7105181,21.2172729 L52.7105181,21.2172729 C53.7790895,22.0147881 54.6775768,22.5816171 55.3512575,22.9682911 L55.3512575,22.9682911 C61.790047,13.1784076 62.0673579,3.81987075 61.9911899,1.34530341 L61.9911899,1.34530341 C61.9800974,0.974740791 61.7124,0.658371128 61.3448706,0.582208061 L61.3448706,0.582208061 C60.3140135,0.369830278 58.0555934,0.00659103465 54.9770726,0 L54.9770726,0 L54.7981146,0 Z M27.4227212,10.2073157 C13.6621841,21.6420284 9.59643645,31.8918197 9.59643645,31.8918197 L9.59643645,31.8918197 L11.3911926,33.2378554 L11.418554,33.2583608 C13.2007388,34.5970732 15.7690075,34.0734521 16.8634613,32.1408143 L16.8634613,32.1408143 C19.4014107,27.6567137 23.2053769,22.3289607 28.6362337,17.816299 L28.6362337,17.816299 C31.0040991,15.8477767 33.5161662,14.1912299 35.9402333,12.9843383 L35.9402333,12.9843383 C37.7017122,12.106266 38.441208,10.0015289 37.6292416,8.22121722 L37.6292416,8.22121722 C37.0805358,7.01652255 36.4209056,5.76642298 35.6769728,4.71478679 L35.6769728,4.71478679 C32.9585864,6.11794483 30.1810404,7.91510028 27.4227212,10.2073157 L27.4227212,10.2073157 Z M39.822586,14.5361608 C38.3236281,15.7818663 38.1276618,17.9949893 39.3862835,19.4801691 L39.3862835,19.4801691 C40.6434263,20.9646166 42.878922,21.1579536 44.3778799,19.912248 L44.3778799,19.912248 C45.8768378,18.6665425 46.0728042,16.4534195 44.8149219,14.968972 L44.8149219,14.968972 C44.1138799,14.1421633 43.1096447,13.7152108 42.098754,13.7152108 L42.098754,13.7152108 C41.2949221,13.7159431 40.4866532,13.9847109 39.822586,14.5361608 L39.822586,14.5361608 Z M9.03146169,16.5962253 C6.42326015,17.8895327 0,24.2286434 0,24.2286434 L0,24.2286434 C0,24.2286434 4.08719305,23.515347 7.34615086,23.4032994 L7.34615086,23.4032994 C9.52914233,23.3278686 11.5590582,22.2755001 12.8842346,20.5567047 L12.8842346,20.5567047 C12.8842346,20.5567047 16.0596294,16.302558 17.2361671,14.9140467 L17.2361671,14.9140467 C17.2361671,14.9140467 16.7414445,14.7866201 15.8333437,14.7866201 L15.8333437,14.7866201 C14.4416126,14.7866201 12.0781842,15.0846813 9.03146169,16.5962253 L9.03146169,16.5962253 Z M31.1438638,21.7489497 C29.6441664,22.9946552 29.4482001,25.2077782 30.7068218,26.6922257 L30.7068218,26.6922257 C31.9647041,28.1766731 34.2001998,28.3707425 35.6984182,27.1250369 L35.6984182,27.1250369 C37.1973761,25.8785991 37.3933425,23.6662084 36.1354602,22.1810286 L36.1354602,22.1810286 C35.4344182,21.3542199 34.430183,20.9279997 33.4192923,20.9279997 L33.4192923,20.9279997 C32.6154604,20.9279997 31.8071915,21.1967674 31.1438638,21.7489497 L31.1438638,21.7489497 Z M45.2482664,23.9686637 C43.6258127,26.1224673 41.5419137,28.2857914 39.1740483,30.2535814 L39.1740483,30.2535814 C33.7439309,34.7662431 27.7843346,37.5505891 22.8844357,39.2481467 L22.8844357,39.2481467 C20.7731753,39.9790192 19.8066544,42.3935349 20.8286375,44.3635219 L20.8286375,44.3635219 L20.8434274,44.3935477 L21.870587,46.3774492 C21.870587,46.3774492 32.7692755,44.1928873 46.5298126,32.7581746 L46.5298126,32.7581746 C49.2888712,30.4659592 51.5576442,28.0682872 53.424871,25.6618272 L53.424871,25.6618272 C52.5086358,24.7529968 51.3794257,23.8925006 50.2768376,23.1477137 L50.2768376,23.1477137 C49.6401317,22.7178318 48.9124679,22.509848 48.1929385,22.509848 L48.1929385,22.509848 C47.070384,22.509848 45.9663168,23.0144283 45.2482664,23.9686637 L45.2482664,23.9686637 Z M22.4644021,28.9610063 C20.9654442,30.2074441 20.7694778,32.4198348 22.0273601,33.9042822 L22.0273601,33.9042822 C23.2852424,35.3887297 25.5207381,35.5827991 27.0189565,34.3370935 L27.0189565,34.3370935 C28.5179144,33.091388 28.7138808,30.878265 27.4559985,29.3938175 L27.4559985,29.3938175 C26.7549565,28.5662765 25.7507213,28.1400563 24.7398306,28.1400563 L24.7398306,28.1400563 C23.9359987,28.1400563 23.1284693,28.4095564 22.4644021,28.9610063 L22.4644021,28.9610063 Z M33.7942166,45.071692 C31.8545193,46.0662059 30.4553933,47.8633613 30.0013429,49.9798158 L30.0013429,49.9798158 C29.3239648,53.1376537 27.9048724,57 27.9048724,57 L27.9048724,57 C27.9048724,57 35.3249728,51.8370229 37.0635274,49.517711 L37.0635274,49.517711 C40.4215776,45.0402015 40.1612751,41.8069328 40.1612751,41.8069328 L40.1612751,41.8069328 C38.5757962,42.7135662 33.7942166,45.071692 33.7942166,45.071692 L33.7942166,45.071692 Z" id="path-6"></path>
        <linearGradient x1="21.100862%" y1="70.4948081%" x2="94.1629798%" y2="3.97502552%" id="linearGradient-8">
            <stop stop-color="#F05964" offset="0%"></stop>
            <stop stop-color="#C10217" offset="100%"></stop>
        </linearGradient>
    </defs>
    <g id="页面-1" stroke="none" stroke-width="1" fill="none" fill-rule="evenodd">
        <g id="落地页备份" transform="translate(-120.000000, -5317.000000)">
            <g id="组织机构" transform="translate(120.000000, 4869.000000)">
                <g id="编组" transform="translate(0.000000, 448.000000)">
                    <polygon id="Fill-1" fill="#848EB4" points="220.425908 37.5253368 215.492252 24 210.660291 24 207 50 211.831235 50 214.070702 34.0963271 217.261743 42.8425133 222.092978 42.8425133 227.747215 34.0963271 225.507748 50 230.339709 50 234 24 229.168039 24"></polygon>
                    <g transform="translate(80.000000, 22.000000)">
                        <g transform="translate(155.379306, 0.000000)">
                            <mask id="mask-2" fill="white">
                                <use xlink:href="#path-1"></use>
                            </mask>
                            <g id="Clip-3"></g>
                            <path d="M11.9767151,23.3734042 C6.39405036,23.3734042 4.62867371,19.175374 5.36516335,13.9960895 C6.10165298,8.81608078 9.06153521,4.61805053 14.6441999,4.61805053 C20.2268647,4.61805053 21.9922413,8.81608078 21.2557517,13.9960895 C21.0498277,15.4415386 20.6643615,16.8051561 20.10375,18.02756 L18.1566326,15.7884174 L14.2250238,19.1942025 L16.7232259,22.065548 C15.4246591,22.8911051 13.8520156,23.3734042 11.9767151,23.3734042 L11.9767151,23.3734042 Z M25.8073309,24.5849455 L23.3956022,21.8120875 C24.9814366,19.5801866 26.0242473,16.8906085 26.4360952,13.9960895 C27.5353335,6.26626803 23.7195111,0 15.3008116,0 C6.88211215,0 1.28405808,6.26626803 0.184819819,13.9960895 C-0.914418445,21.7251867 2.90140398,27.9907306 11.3201034,27.9907306 C14.559925,27.9907306 17.3776391,27.0558234 19.6867723,25.4735056 L21.8764549,27.9907306 L25.8073309,24.5849455 Z" id="Fill-2" fill="#848EB4" mask="url(#mask-2)"></path>
                        </g>
                        <path d="M16.5127572,27.2425152 L22.4325217,27.2425152 L16.4893068,17.9781714 C18.5536762,17.9781714 20.3293125,17.7247108 21.8916964,16.330678 C23.6636685,14.7498086 24.7467846,12.0146076 25.0465103,9.9043678 C25.7368319,5.04951274 23.6035768,1.11363307 17.4009417,1.11363307 L3.71615816,1.11363307 L-1.77635684e-14,27.2425152 L4.87402246,27.2425152 L7.98706523,5.35294118 L17.1539795,5.35294118 C20.1629611,5.35294118 20.4861371,7.39076369 20.1285183,9.9043678 C19.7708994,12.4186961 18.8680584,14.4557944 15.8590768,14.4557944 L8.74407398,14.4557944 L16.5127572,27.2425152 Z" id="Fill-4" fill="#848EB4"></path>
                        <path d="M59.721908,11.8972916 C61.5246588,11.8972916 62.6612711,12.4788024 63.191104,13.6258923 L68.1530655,13.6258923 C67.6437518,10.1266889 64.9616104,7.95561855 60.2825195,7.95561855 C53.7779603,7.95561855 49.5026563,12.4425938 48.7148689,17.9774472 C47.9278143,23.5130248 50.9272691,28 57.4318283,28 C62.1189803,28 65.1851222,26.0910803 66.8860102,22.3297263 L61.985606,22.3297263 C61.2432538,23.3551551 59.7695417,24.0576028 57.9924398,24.0576028 C54.3568925,24.0576028 53.2056236,21.3361611 53.6834258,17.9774472 C54.1612281,14.6194575 56.0870935,11.8972916 59.721908,11.8972916" id="Fill-6" fill="#848EB4"></path>
                        <path d="M94.2262643,15.8392543 C94.849166,13.6406654 96.163855,12.0547268 99.065844,12.0547268 C101.967833,12.0547268 102.831101,13.6406654 102.828907,15.8392543 L94.2262643,15.8392543 Z M99.6491731,7.95518404 C92.8448882,7.95518404 89.276028,12.2727028 88.5182864,17.5989944 C87.7612777,22.9245619 90.1019223,27.2428048 96.9062072,27.2428048 L105.110189,27.2428048 L105.692785,23.1432621 L97.4888035,23.1432621 C94.6439748,23.1432621 93.774111,21.6456725 93.7286758,19.544847 L107.759353,19.544847 L108.036361,17.5989944 C108.79337,12.273427 106.453458,7.95518404 99.6491731,7.95518404 L99.6491731,7.95518404 Z" id="Fill-8" fill="#848EB4"></path>
                        <path d="M35.6614145,24.058327 C32.0258671,24.058327 30.8745983,21.3361611 31.3524005,17.9781714 C31.8302027,14.6194575 33.7553353,11.8972916 37.3908827,11.8972916 C41.0256972,11.8972916 42.1769661,14.6194575 41.6998967,17.9781714 C41.2220944,21.3361611 39.296229,24.058327 35.6614145,24.058327 M37.9514942,7.95561855 C31.446935,7.95561855 27.1708981,12.4425938 26.3838435,17.9781714 C25.5967889,23.5130248 28.5955109,28 35.100803,28 C41.6053622,28 45.8806662,23.5130248 46.6684536,17.9781714 C47.4555082,12.4425938 44.4560534,7.95561855 37.9514942,7.95561855" id="Fill-10" fill="#848EB4"></path>
                        <polygon id="Fill-12" fill="#848EB4" points="72.6894753 1.19597153 68.9733171 27.3248536 73.8473396 27.3248536 75.2309141 17.5984875 77.5634977 1.19597153"></polygon>
                        <polygon id="Fill-14" fill="#848EB4" points="87.9178092 8.59578738 82.4384729 8.59578738 75.231134 17.5987048 81.4828684 27.2425152 87.4194878 27.2425152 80.909066 17.3510376"></polygon>
                        <path d="M120.426169,1.19387143 L115.552146,1.19387143 L114.499076,8.59564255 L111.718003,8.59564255 L111.166185,12.4714159 L113.947991,12.4714159 L112.724173,21.0760382 C112.233179,24.5274462 114.666893,27.324926 118.158807,27.324926 L122.187881,27.324926 L122.71918,23.5874697 L120.29426,23.5874697 C118.608029,23.5874697 117.434042,22.2376115 117.670745,20.5712896 L118.822746,12.4714159 L124.300617,12.4714159 L124.851702,8.59564255 L119.373098,8.59564255 L120.426169,1.19387143 Z" id="Fill-16" fill="#848EB4"></path>
                    </g>
                    <g transform="translate(0.000000, 37.000000)">
                        <mask id="mask-4" fill="white">
                            <use xlink:href="#path-3"></use>
                        </mask>
                        <g id="Clip-19"></g>
                        <path d="M18.2989782,2.68622731 C14.0738687,6.22736413 0,26 0,26 L0,26 C0,26 21.9394582,15.5901328 26.1645678,12.048996 L26.1645678,12.048996 C30.3904146,8.50785919 30.906481,4.41960973 28.7751267,1.88359908 L28.7751267,1.88359908 C27.7628992,0.678184032 26.301694,0 24.5927769,0 L24.5927769,0 C22.7054483,0 20.5165894,0.827664335 18.2989782,2.68622731" id="Fill-18" fill="url(#linearGradient-5)" mask="url(#mask-4)"></path>
                    </g>
                    <g transform="translate(13.000000, 0.000000)">
                        <mask id="mask-7" fill="white">
                            <use xlink:href="#path-6"></use>
                        </mask>
                        <g id="Clip-21"></g>
                        <path d="M54.7981146,0 C50.5859468,0.0087880462 44.8829555,0.690593964 38.6896785,3.30357303 L38.6896785,3.30357303 C38.957376,4.02785451 39.3655777,5.0025953 39.9712247,6.18312284 L39.9712247,6.18312284 C40.7728381,7.74373338 42.3006363,8.81733969 44.0569387,9.01507073 L44.0569387,9.01507073 C45.8280311,9.21426644 47.94151,9.78988347 49.2245351,11.3043568 L49.2245351,11.3043568 C50.5075602,12.8188301 50.7131401,14.9792248 50.6036947,16.7419604 L50.6036947,16.7419604 C50.4957283,18.4885845 51.2980812,20.1656367 52.7105181,21.2172729 L52.7105181,21.2172729 C53.7790895,22.0147881 54.6775768,22.5816171 55.3512575,22.9682911 L55.3512575,22.9682911 C61.790047,13.1784076 62.0673579,3.81987075 61.9911899,1.34530341 L61.9911899,1.34530341 C61.9800974,0.974740791 61.7124,0.658371128 61.3448706,0.582208061 L61.3448706,0.582208061 C60.3140135,0.369830278 58.0555934,0.00659103465 54.9770726,0 L54.9770726,0 L54.7981146,0 Z M27.4227212,10.2073157 C13.6621841,21.6420284 9.59643645,31.8918197 9.59643645,31.8918197 L9.59643645,31.8918197 L11.3911926,33.2378554 L11.418554,33.2583608 C13.2007388,34.5970732 15.7690075,34.0734521 16.8634613,32.1408143 L16.8634613,32.1408143 C19.4014107,27.6567137 23.2053769,22.3289607 28.6362337,17.816299 L28.6362337,17.816299 C31.0040991,15.8477767 33.5161662,14.1912299 35.9402333,12.9843383 L35.9402333,12.9843383 C37.7017122,12.106266 38.441208,10.0015289 37.6292416,8.22121722 L37.6292416,8.22121722 C37.0805358,7.01652255 36.4209056,5.76642298 35.6769728,4.71478679 L35.6769728,4.71478679 C32.9585864,6.11794483 30.1810404,7.91510028 27.4227212,10.2073157 L27.4227212,10.2073157 Z M39.822586,14.5361608 C38.3236281,15.7818663 38.1276618,17.9949893 39.3862835,19.4801691 L39.3862835,19.4801691 C40.6434263,20.9646166 42.878922,21.1579536 44.3778799,19.912248 L44.3778799,19.912248 C45.8768378,18.6665425 46.0728042,16.4534195 44.8149219,14.968972 L44.8149219,14.968972 C44.1138799,14.1421633 43.1096447,13.7152108 42.098754,13.7152108 L42.098754,13.7152108 C41.2949221,13.7159431 40.4866532,13.9847109 39.822586,14.5361608 L39.822586,14.5361608 Z M9.03146169,16.5962253 C6.42326015,17.8895327 0,24.2286434 0,24.2286434 L0,24.2286434 C0,24.2286434 4.08719305,23.515347 7.34615086,23.4032994 L7.34615086,23.4032994 C9.52914233,23.3278686 11.5590582,22.2755001 12.8842346,20.5567047 L12.8842346,20.5567047 C12.8842346,20.5567047 16.0596294,16.302558 17.2361671,14.9140467 L17.2361671,14.9140467 C17.2361671,14.9140467 16.7414445,14.7866201 15.8333437,14.7866201 L15.8333437,14.7866201 C14.4416126,14.7866201 12.0781842,15.0846813 9.03146169,16.5962253 L9.03146169,16.5962253 Z M31.1438638,21.7489497 C29.6441664,22.9946552 29.4482001,25.2077782 30.7068218,26.6922257 L30.7068218,26.6922257 C31.9647041,28.1766731 34.2001998,28.3707425 35.6984182,27.1250369 L35.6984182,27.1250369 C37.1973761,25.8785991 37.3933425,23.6662084 36.1354602,22.1810286 L36.1354602,22.1810286 C35.4344182,21.3542199 34.430183,20.9279997 33.4192923,20.9279997 L33.4192923,20.9279997 C32.6154604,20.9279997 31.8071915,21.1967674 31.1438638,21.7489497 L31.1438638,21.7489497 Z M45.2482664,23.9686637 C43.6258127,26.1224673 41.5419137,28.2857914 39.1740483,30.2535814 L39.1740483,30.2535814 C33.7439309,34.7662431 27.7843346,37.5505891 22.8844357,39.2481467 L22.8844357,39.2481467 C20.7731753,39.9790192 19.8066544,42.3935349 20.8286375,44.3635219 L20.8286375,44.3635219 L20.8434274,44.3935477 L21.870587,46.3774492 C21.870587,46.3774492 32.7692755,44.1928873 46.5298126,32.7581746 L46.5298126,32.7581746 C49.2888712,30.4659592 51.5576442,28.0682872 53.424871,25.6618272 L53.424871,25.6618272 C52.5086358,24.7529968 51.3794257,23.8925006 50.2768376,23.1477137 L50.2768376,23.1477137 C49.6401317,22.7178318 48.9124679,22.509848 48.1929385,22.509848 L48.1929385,22.509848 C47.070384,22.509848 45.9663168,23.0144283 45.2482664,23.9686637 L45.2482664,23.9686637 Z M22.4644021,28.9610063 C20.9654442,30.2074441 20.7694778,32.4198348 22.0273601,33.9042822 L22.0273601,33.9042822 C23.2852424,35.3887297 25.5207381,35.5827991 27.0189565,34.3370935 L27.0189565,34.3370935 C28.5179144,33.091388 28.7138808,30.878265 27.4559985,29.3938175 L27.4559985,29.3938175 C26.7549565,28.5662765 25.7507213,28.1400563 24.7398306,28.1400563 L24.7398306,28.1400563 C23.9359987,28.1400563 23.1284693,28.4095564 22.4644021,28.9610063 L22.4644021,28.9610063 Z M33.7942166,45.071692 C31.8545193,46.0662059 30.4553933,47.8633613 30.0013429,49.9798158 L30.0013429,49.9798158 C29.3239648,53.1376537 27.9048724,57 27.9048724,57 L27.9048724,57 C27.9048724,57 35.3249728,51.8370229 37.0635274,49.517711 L37.0635274,49.517711 C40.4215776,45.0402015 40.1612751,41.8069328 40.1612751,41.8069328 L40.1612751,41.8069328 C38.5757962,42.7135662 33.7942166,45.071692 33.7942166,45.071692 L33.7942166,45.071692 Z" id="Fill-20" fill="url(#linearGradient-8)" mask="url(#mask-7)"></path>
                    </g>
                </g>
            </g>
        </g>
    </g>
</svg>