<?xml version="1.0" encoding="UTF-8"?>
<svg width="27px" height="29px" viewBox="0 0 27 29" version="1.1" xmlns="http://www.w3.org/2000/svg" xmlns:xlink="http://www.w3.org/1999/xlink">
    <title>编组</title>
    <defs>
        <polygon id="path-1" points="0 0 26.9993 0 26.9993 28.9991 0 28.9991"></polygon>
        <polygon id="path-3" points="0 29 27 29 27 0 0 0"></polygon>
    </defs>
    <g id="页面-1" stroke="none" stroke-width="1" fill="none" fill-rule="evenodd">
        <g id="落地页备份" transform="translate(-645.000000, -1452.000000)">
            <g id="大会流程安排" transform="translate(120.000000, 1049.000000)">
                <g id="编组-7" transform="translate(0.000000, 167.000000)">
                    <g id="案例申报备份-2" transform="translate(305.000000, 200.000000)">
                        <g id="编组" transform="translate(220.000000, 36.000000)">
                            <g transform="translate(0.000700, 0.000000)">
                                <mask id="mask-2" fill="white">
                                    <use xlink:href="#path-1"></use>
                                </mask>
                                <g id="Clip-2"></g>
                                <path d="M26.698,8.4321 L18.59,0.3041 C18.395,0.1111 18.131,-0.0009 17.856,-0.0009 L4.88,-0.0009 C2.183,0.0031 0,2.1891 0,4.8911 L0,24.1131 C0.003,26.8071 2.183,28.9941 4.88,28.9991 L22.119,28.9991 C24.815,28.9961 27,26.8111 27,24.1091 L27,9.1651 C27,8.8911 26.892,8.6261 26.698,8.4321" id="Fill-1" fill="#FEB28D" mask="url(#mask-2)"></path>
                            </g>
                            <path d="M26.7026,8.4292 L21.7816,8.4292 C19.9816,8.4292 18.5196,6.9692 18.5196,5.1652 L18.5196,0.2412 L22.6646,4.3382 L26.7026,8.4292 Z" id="Fill-3" fill="#FFDFC6"></path>
                            <mask id="mask-4" fill="white">
                                <use xlink:href="#path-3"></use>
                            </mask>
                            <g id="Clip-6"></g>
                            <polygon id="Fill-5" fill="#FFFFFF" mask="url(#mask-4)" points="7.107 16.195 19.893 16.195 19.893 13.449 7.107 13.449"></polygon>
                            <polygon id="Fill-7" fill="#FFFFFF" mask="url(#mask-4)" points="12.127 21.215 14.873 21.215 14.873 8.428 12.127 8.428"></polygon>
                        </g>
                    </g>
                </g>
            </g>
        </g>
    </g>
</svg>