<?xml version="1.0" encoding="UTF-8"?>
<svg width="25px" height="29px" viewBox="0 0 25 29" version="1.1" xmlns="http://www.w3.org/2000/svg" xmlns:xlink="http://www.w3.org/1999/xlink">
    <title>编组</title>
    <defs>
        <polygon id="path-1" points="0 0 24.138 0 24.138 17.354 0 17.354"></polygon>
        <polygon id="path-3" points="0 0 14.822 0 14.822 14.8217 0 14.8217"></polygon>
    </defs>
    <g id="页面-1" stroke="none" stroke-width="1" fill="none" fill-rule="evenodd">
        <g id="落地页备份" transform="translate(-1112.000000, -1453.000000)">
            <g id="大会流程安排" transform="translate(120.000000, 1049.000000)">
                <g id="编组-7" transform="translate(0.000000, 167.000000)">
                    <g id="案例评选备份-2" transform="translate(915.000000, 200.000000)">
                        <g id="编组" transform="translate(77.000000, 37.000000)">
                            <g transform="translate(0.000000, 11.645400)">
                                <mask id="mask-2" fill="white">
                                    <use xlink:href="#path-1"></use>
                                </mask>
                                <g id="Clip-2"></g>
                                <path d="M24.1385,12.069 C24.1385,5.403 18.7355,0 12.0695,0 C5.4035,0 -0.0005,5.403 -0.0005,12.069 C-0.0005,17.354 5.4035,17.354 12.0695,17.354 C18.7355,17.354 24.1385,17.354 24.1385,12.069" id="Fill-1" fill="#FEB28D" mask="url(#mask-2)"></path>
                            </g>
                            <g transform="translate(4.658300, 0.000000)">
                                <mask id="mask-4" fill="white">
                                    <use xlink:href="#path-3"></use>
                                </mask>
                                <g id="Clip-4"></g>
                                <path d="M14.822,7.4107 C14.822,3.3177 11.504,-0.0003 7.411,-0.0003 C3.318,-0.0003 0,3.3177 0,7.4107 C0,11.5047 3.318,14.8217 7.411,14.8217 C11.504,14.8217 14.822,11.5047 14.822,7.4107" id="Fill-3" fill="#FFDFC6" mask="url(#mask-4)"></path>
                            </g>
                        </g>
                    </g>
                </g>
            </g>
        </g>
    </g>
</svg>