<?xml version="1.0" encoding="UTF-8"?>
<svg width="27px" height="29px" viewBox="0 0 27 29" version="1.1" xmlns="http://www.w3.org/2000/svg" xmlns:xlink="http://www.w3.org/1999/xlink">
    <title>编组</title>
    <defs>
        <polygon id="path-1" points="0 0 26.9998 0 26.9998 28.9991 0 28.9991"></polygon>
    </defs>
    <g id="页面-1" stroke="none" stroke-width="1" fill="none" fill-rule="evenodd">
        <g id="落地页备份" transform="translate(-500.000000, -1330.000000)">
            <g id="大会流程安排" transform="translate(120.000000, 1049.000000)">
                <g id="编组-7" transform="translate(0.000000, 167.000000)">
                    <g id="编组-7备份" transform="translate(292.000000, 30.000000)">
                        <g id="编组" transform="translate(88.000000, 84.000000)">
                            <g>
                                <mask id="mask-2" fill="white">
                                    <use xlink:href="#path-1"></use>
                                </mask>
                                <g id="Clip-2"></g>
                                <path d="M26.699,8.4321 L18.59,0.3041 C18.395,0.1111 18.132,-0.0009 17.857,-0.0009 L4.881,-0.0009 C2.184,0.0031 0,2.1891 0,4.8911 L0,24.1131 C0.003,26.8071 2.184,28.9941 4.881,28.9991 L22.119,28.9991 C24.815,28.9961 27,26.8111 27,24.1091 L27,9.1651 C27,8.8911 26.892,8.6261 26.699,8.4321" id="Fill-1" fill="#958DFE" mask="url(#mask-2)"></path>
                            </g>
                            <polygon id="Fill-3" fill="#FFFFFF" points="18.6033 14.5855 13.5143 8.2185 8.4263 14.5855 11.6043 14.5855 11.6043 20.6715 15.4213 20.6715 15.4213 14.5855"></polygon>
                            <path d="M26.7019,8.4292 L21.7809,8.4292 C19.9809,8.4292 18.5189,6.9692 18.5189,5.1652 L18.5189,0.2412 L22.6639,4.3382 L26.7019,8.4292 Z" id="Fill-5" fill="#C6C9FF"></path>
                        </g>
                    </g>
                </g>
            </g>
        </g>
    </g>
</svg>