<?xml version="1.0" encoding="UTF-8"?>
<svg width="27px" height="29px" viewBox="0 0 27 29" version="1.1" xmlns="http://www.w3.org/2000/svg" xmlns:xlink="http://www.w3.org/1999/xlink">
    <title>编组</title>
    <defs>
        <polygon id="path-1" points="0 0 26.9999 0 26.9999 28.9991 0 28.9991"></polygon>
    </defs>
    <g id="页面-1" stroke="none" stroke-width="1" fill="none" fill-rule="evenodd">
        <g id="落地页备份" transform="translate(-1096.000000, -1330.000000)">
            <g id="大会流程安排" transform="translate(120.000000, 1049.000000)">
                <g id="编组-7" transform="translate(0.000000, 167.000000)">
                    <g id="编组-9备份" transform="translate(902.000000, 30.000000)">
                        <g id="编组" transform="translate(74.000000, 84.000000)">
                            <g>
                                <mask id="mask-2" fill="white">
                                    <use xlink:href="#path-1"></use>
                                </mask>
                                <g id="Clip-2"></g>
                                <path d="M26.6989,8.4321 L18.5899,0.3041 C18.3959,0.1111 18.1319,-0.0009 17.8569,-0.0009 L4.8809,-0.0009 C2.1839,0.0031 -0.0001,2.1891 -0.0001,4.8911 L-0.0001,24.1131 C0.0039,26.8071 2.1839,28.9941 4.8809,28.9991 L22.1189,28.9991 C24.8149,28.9961 26.9999,26.8111 26.9999,24.1091 L26.9999,9.1651 C26.9999,8.8911 26.8929,8.6261 26.6989,8.4321" id="Fill-1" fill="#958DFE" mask="url(#mask-2)"></path>
                            </g>
                            <path d="M26.7018,8.4292 L21.7808,8.4292 C19.9808,8.4292 18.5188,6.9692 18.5188,5.1652 L18.5188,0.2412 L22.6648,4.3382 L26.7018,8.4292 Z" id="Fill-3" fill="#C6C9FF"></path>
                            <path d="M11.2751,13.4253 C11.5811,12.8613 11.5461,11.0813 11.5171,10.3423 C11.5081,10.1373 11.2651,10.0033 11.0861,10.1103 C10.4521,10.4903 8.9441,11.4393 8.6391,12.0033 C8.4501,12.3523 8.4081,12.7623 8.5221,13.1423 C8.6351,13.5243 8.8951,13.8433 9.2461,14.0303 C9.4641,14.1483 9.7091,14.2103025 9.9571,14.2103025 C10.5061,14.2113 11.0131,13.9093 11.2751,13.4253" id="Fill-5" fill="#FFFFFF"></path>
                            <path d="M7.0251,15.6343 C6.3921,16.0153 4.8841,16.9613 4.5791,17.5283 C4.1871,18.2533 4.4591,19.1633 5.1851,19.5563 C5.9131,19.9493 6.8211,19.6783 7.2141,18.9503 L7.2141,18.9493 C7.5191,18.3863 7.4851,16.6063 7.4571,15.8663 C7.4481,15.6613 7.2021,15.5293 7.0251,15.6343" id="Fill-7" fill="#FFFFFF"></path>
                            <path d="M16.4831,13.3091 C16.7881,12.7451 16.7541,10.9651 16.7251,10.2261 C16.7161,10.0211 16.4701,9.8881 16.2941,9.9941 C15.6601,10.3741 14.1531,11.3211 13.8471,11.8871 C13.4551,12.6131 13.7271,13.5231 14.4541,13.9151 C14.6721,14.0331 14.9161,14.0941 15.1641,14.0951025 C15.7141,14.0961 16.2211,13.7931 16.4831,13.3091" id="Fill-9" fill="#FFFFFF"></path>
                            <path d="M12.2331,15.5181 C11.5991,15.9001 10.0911,16.8471 9.7871,17.4121 C9.3941,18.1371 9.6671,19.0471 10.3931,19.4401 C11.1211,19.8321 12.0291,19.5621 12.4221,18.8331 C12.7281,18.2681 12.6931,16.4891 12.6651,15.7511 C12.6571,15.5461 12.4101,15.4131 12.2331,15.5181" id="Fill-11" fill="#FFFFFF"></path>
                            <path d="M21.8903,13.3091 C22.1963,12.7441 22.1613,10.9651 22.1313,10.2261 C22.1233,10.0221 21.8813,9.8871 21.7013,9.9941 C21.0673,10.3751 19.5593,11.3231 19.2543,11.8871 C18.8623,12.6151 19.1333,13.5231 19.8613,13.9151 C20.0793,14.0331 20.3233,14.0941025 20.5713,14.0941025 C21.1213,14.0951 21.6283,13.7931 21.8903,13.3091" id="Fill-13" fill="#FFFFFF"></path>
                            <path d="M17.6403,15.5181 C17.0063,15.8991 15.4983,16.8461 15.1943,17.4121 C14.8013,18.1371 15.0743,19.0471 15.8003,19.4401 C16.5283,19.8321 17.4363,19.5611 17.8293,18.8331 C18.1343,18.2691 18.1003,16.4901 18.0723,15.7501 C18.0633,15.5451 17.8163,15.4131 17.6403,15.5181" id="Fill-15" fill="#FFFFFF"></path>
                        </g>
                    </g>
                </g>
            </g>
        </g>
    </g>
</svg>