<?xml version="1.0" encoding="UTF-8"?>
<svg width="364px" height="41px" viewBox="0 0 364 41" version="1.1" xmlns="http://www.w3.org/2000/svg" xmlns:xlink="http://www.w3.org/1999/xlink">
    <title>编组</title>
    <defs>
        <polygon id="path-1" points="0 0 25.3994225 0 25.3994225 40.9996466 0 40.9996466"></polygon>
        <polygon id="path-3" points="0 0 25.3992474 0 25.3992474 40.9996466 0 40.9996466"></polygon>
        <polygon id="path-5" points="0 41 364 41 364 0 0 0"></polygon>
    </defs>
    <g id="页面-1" stroke="none" stroke-width="1" fill="none" fill-rule="evenodd">
        <g id="落地页备份" transform="translate(-122.000000, -5101.000000)">
            <g id="组织机构" transform="translate(120.000000, 4869.000000)">
                <g id="编组" transform="translate(2.000000, 232.000000)">
                    <polygon id="Fill-1" fill="#FF6A00" points="22 23 44 23 44 18 22 18"></polygon>
                    <g>
                        <g transform="translate(40.113396, 0.000000)">
                            <mask id="mask-2" fill="white">
                                <use xlink:href="#path-1"></use>
                            </mask>
                            <g id="Clip-3"></g>
                            <path d="M14.5389798,-0.000353448276 L0,-0.000353448276 L3.50336862,4.94792241 L14.0134745,8.1289569 C15.9403272,8.83585345 17.1665063,10.6030948 17.1665063,12.5470603 L17.1665063,28.454 C17.1665063,30.3961983 15.9403272,32.1634397 14.0134745,32.8721034 L3.50336862,36.0513707 L0,40.9996466 L14.5389798,40.9996466 C20.4947064,40.9996466 25.3994225,36.0513707 25.3994225,30.04275 L25.3994225,10.779819 C25.3994225,4.94792241 20.6698749,-0.000353448276 14.5389798,-0.000353448276" id="Fill-2" fill="#FF6A00" mask="url(#mask-2)"></path>
                        </g>
                        <g>
                            <mask id="mask-4" fill="white">
                                <use xlink:href="#path-3"></use>
                            </mask>
                            <g id="Clip-5"></g>
                            <path d="M10.8602676,-0.000353448276 L25.3992474,-0.000353448276 L21.8958787,4.94792241 L11.3857729,8.1289569 C9.45892012,8.83585345 8.2327411,10.6030948 8.2327411,12.5470603 L8.2327411,28.454 C8.2327411,30.3961983 9.45892012,32.1634397 11.3857729,32.8721034 L21.8958787,36.0513707 L25.3992474,40.9996466 L10.8602676,40.9996466 C4.9045409,40.9996466 -0.000175168431,36.0513707 -0.000175168431,30.04275 L-0.000175168431,10.779819 C-0.000175168431,4.94792241 4.9045409,-0.000353448276 10.8602676,-0.000353448276" id="Fill-4" fill="#FF6A00" mask="url(#mask-4)"></path>
                        </g>
                        <mask id="mask-6" fill="white">
                            <use xlink:href="#path-5"></use>
                        </mask>
                        <g id="Clip-7"></g>
                        <path d="M95.1164581,27.7456897 L97.3936477,27.7456897 L97.3936477,14.3146552 L95.1164581,14.3146552 L95.1164581,27.7456897 Z M91.0875842,31.987069 L101.772859,31.987069 L101.772859,9.89655172 L91.0875842,9.89655172 L91.0875842,31.987069 Z" id="Fill-6" fill="#FF6A00" mask="url(#mask-6)"></path>
                        <path d="M75.4972435,40.2923966 L79.7012859,40.2923966 L79.7012859,5.47774138 L84.0804966,5.47774138 L81.4529702,17.1415345 L81.4529702,21.3829138 L84.0804966,21.3829138 L84.0804966,30.7510603 C84.0804966,31.2794655 83.5549913,31.8096379 83.029486,31.8096379 L81.9784755,31.8096379 L81.9784755,36.0527845 L84.0804966,36.0527845 C86.3576862,36.0527845 88.284539,34.1070517 88.284539,31.8096379 L88.284539,17.1415345 L85.6570125,17.1415345 L88.284539,5.47774138 L88.284539,1.23636207 L75.4972435,1.23636207 L75.4972435,40.2923966 Z" id="Fill-8" fill="#FF6A00" mask="url(#mask-6)"></path>
                        <path d="M90.0367488,5.47827155 L104.575729,5.47827155 L104.575729,32.5170647 C104.575729,34.4610302 102.999213,36.0515474 101.07236,36.0515474 L97.7441598,36.0515474 L97.7441598,40.2929267 L102.123371,40.2929267 C105.801908,40.2929267 108.779771,37.2886164 108.779771,33.5774095 L108.779771,5.47827155 L110.356287,5.47827155 L110.356287,1.23689224 L90.0367488,1.23689224 L90.0367488,5.47827155 Z" id="Fill-9" fill="#FF6A00" mask="url(#mask-6)"></path>
                        <polygon id="Fill-10" fill="#FF6A00" mask="url(#mask-6)" points="153.622714 5.83189655 183.751684 5.83189655 183.751684 1.59051724 153.622714 1.59051724"></polygon>
                        <path d="M185.3282,21.2065431 L185.3282,16.9651638 L152.046198,16.9651638 L152.046198,21.2065431 L160.454283,21.2065431 L153.797883,35.8746466 L153.797883,40.1160259 L182,40.1160259 C183.226179,40.1160259 184.102021,39.2324052 184.102021,37.9953362 C184.102021,37.6418879 183.926853,37.2902069 183.926853,37.1117155 L180.423484,29.1591293 L175.693936,29.1591293 L178.6718,35.8746466 L158.352262,35.8746466 L165.008662,21.2065431 L185.3282,21.2065431 Z" id="Fill-11" fill="#FF6A00" mask="url(#mask-6)"></path>
                        <path d="M120.340712,18.7327586 L129.099134,18.7327586 L129.099134,14.137931 L120.340712,14.137931 L120.340712,18.7327586 Z M120.340712,10.0732759 L129.099134,10.0732759 L129.099134,5.47844828 L120.340712,5.47844828 L120.340712,10.0732759 Z M133.303176,10.0732759 L142.061598,10.0732759 L142.061598,5.47844828 L133.303176,5.47844828 L133.303176,10.0732759 Z M133.303176,18.7327586 L142.061598,18.7327586 L142.061598,14.137931 L133.303176,14.137931 L133.303176,18.7327586 Z M133.303176,35.875 L133.303176,31.2801724 L146.791145,31.2801724 L146.791145,27.0387931 L133.303176,27.0387931 L133.303176,22.7974138 L146.26564,22.7974138 L146.26564,18.5560345 L146.26564,5.30172414 L146.26564,1.06034483 L116.13667,1.06034483 L116.13667,5.30172414 L116.13667,18.5560345 L116.13667,22.7974138 L129.099134,22.7974138 L129.099134,27.0387931 L115.611165,27.0387931 L115.611165,31.2801724 L129.099134,31.2801724 L129.099134,35.875 L114.560154,35.875 L114.560154,40.1163793 L147.666987,40.1163793 L147.666987,35.875 L133.303176,35.875 Z" id="Fill-12" fill="#FF6A00" mask="url(#mask-6)"></path>
                        <polygon id="Fill-13" fill="#FFFFFF" mask="url(#mask-6)" points="198.465833 31.2801724 199.166506 31.2801724 199.166506 10.6034483 198.465833 10.6034483"></polygon>
                        <path d="M214.931665,14.4913793 L231.395746,14.4913793 L231.395746,11.8405172 L214.931665,11.8405172 L214.931665,14.4913793 Z M213.179981,20.6767241 L213.179981,18.0258621 L233.32435,18.0258621 L233.32435,20.6767241 L223.33975,20.6767241 C221.763234,22.7974138 220.186718,24.9181034 218.259865,27.0387931 C219.135707,27.0387931 220.887392,27.0387931 223.514918,26.862069 L227.368624,26.862069 C226.492782,25.625 225.616939,24.387931 224.741097,23.5043103 L226.843118,22.0905172 C228.594803,24.2112069 230.521655,26.6853448 232.623677,29.1594828 L230.346487,30.75 C229.99615,30.2198276 229.470645,29.6896552 229.120308,28.9827586 C227.368624,28.9827586 224.39076,29.1594828 220.186718,29.3362069 L218.259865,29.3362069 C217.73436,29.3362069 217.033686,29.512931 216.157844,29.512931 L215.106833,29.512931 L213.880654,27.0387931 C214.756497,26.5086207 215.632339,25.8017241 216.333013,25.0948276 C217.384023,23.8577586 218.610202,22.2672414 219.661213,20.5 L213.179981,20.5 L213.179981,20.6767241 Z" id="Fill-14" fill="#FFFFFF" mask="url(#mask-6)"></path>
                        <path d="M253.469421,30.2205345 C252.768747,29.5136379 251.540816,28.4532931 249.966052,26.8627759 C249.789132,26.6860517 249.615715,26.5075603 249.615715,26.5075603 L251.367399,25.0955345 C252.942164,26.6860517 254.345263,27.9213534 255.396273,28.8049741 L253.469421,30.2205345 Z M242.959315,22.4446724 L251.190479,22.4446724 L251.190479,20.8541552 L242.959315,20.8541552 L242.959315,22.4446724 Z M242.959315,19.2636379 L251.190479,19.2636379 L251.190479,17.6731207 L242.959315,17.6731207 L242.959315,19.2636379 Z M239.981451,30.3972586 C239.981451,30.2205345 239.804531,30.2205345 239.631115,30.0420431 C239.105609,29.3369138 238.755272,28.9834655 238.403184,28.8049741 C239.981451,27.7463966 241.382799,26.5075603 242.782395,25.0955345 L244.534079,26.6860517 C242.959315,27.7463966 241.556216,29.1584224 239.981451,30.3972586 L239.981451,30.3972586 Z M243.3079,30.9256638 C243.3079,30.2205345 243.134483,29.5136379 242.782395,28.8049741 L245.059584,28.8049741 C245.76201,28.8049741 246.112346,28.6300172 246.112346,27.9213534 L246.112346,24.5653621 L240.506957,24.5653621 L240.506957,15.9041121 L244.360662,15.9041121 L244.886167,13.9619138 L238.755272,13.9619138 L238.755272,20.3222155 C238.755272,22.9730776 238.580104,25.0955345 238.229767,26.5075603 C237.87943,28.0998448 237.353925,29.6885948 236.301163,31.4558362 L235.251904,30.3972586 C234.899815,30.0420431 234.549478,29.8670862 234.376062,29.6885948 C235.251904,28.4532931 235.602241,27.0377328 235.952577,25.802431 C236.127746,24.5653621 236.301163,22.6196293 236.301163,19.9705345 L236.301163,12.0179483 L254.870768,12.0179483 L254.870768,14.1368707 L247.513694,14.1368707 C247.161605,15.0204914 246.988189,15.7291552 246.811269,16.0826034 L253.469421,16.0826034 L253.469421,24.740319 L248.389536,24.740319 L248.389536,28.8049741 C248.389536,30.2205345 247.513694,30.9256638 246.112346,31.1041552 C245.409921,30.9256638 244.360662,30.9256638 243.3079,30.9256638 L243.3079,30.9256638 Z" id="Fill-15" fill="#FFFFFF" mask="url(#mask-6)"></path>
                        <path d="M259.073409,20.6767241 L256.622803,19.262931 C258.197567,17.1422414 259.423746,14.6681034 260.299588,11.487069 L262.927115,12.0172414 C262.576778,12.9008621 262.228192,13.9612069 261.877856,14.6681034 L265.731561,14.6681034 L265.731561,10.4267241 L268.359088,10.4267241 L268.359088,14.6681034 L275.539242,14.6681034 L275.539242,17.1422414 L268.359088,17.1422414 L268.359088,21.0301724 L274.838568,21.0301724 L274.838568,23.5043103 L268.359088,23.5043103 L268.359088,27.7456897 L276.590252,27.7456897 L276.590252,30.0431034 L256.622803,30.0431034 L256.622803,27.7456897 L265.731561,27.7456897 L265.731561,23.5043103 L258.547904,23.5043103 L258.547904,21.0301724 L265.731561,21.0301724 L265.731561,17.1422414 L260.825093,17.1422414 C260.476508,18.3793103 259.774083,19.6163793 259.073409,20.6767241" id="Fill-16" fill="#FFFFFF" mask="url(#mask-6)"></path>
                        <path d="M289.904104,25.4486293 C289.553767,23.3279397 288.851342,20.6770776 288.15242,17.319319 L290.429609,16.9658707 C291.130283,19.7934569 291.830957,22.444319 292.35471,25.095181 L289.904104,25.4486293 Z M285.347973,26.5089741 C285.347973,26.33225 285.174556,25.9788017 285.174556,25.6253534 C284.298714,22.444319 283.422872,19.970181 282.897367,18.3796638 L285.174556,17.6727672 C285.700062,19.0865603 286.400735,21.20725 287.099657,23.8581121 C287.276577,24.7417328 287.451746,25.4486293 287.626914,25.8020776 L285.347973,26.5089741 Z M282.371861,30.0434569 L282.371861,27.7460431 L291.830957,27.7460431 C293.230552,23.6813879 294.458483,20.1469052 295.159157,17.1425948 L297.609763,17.8494914 C296.733921,20.6770776 295.684662,24.0348362 294.283315,27.921 L298.312189,27.921 L298.312189,30.220181 L282.371861,30.220181 L282.371861,30.0434569 Z M280.09292,31.1038017 C279.919503,30.9270776 279.393998,30.3969052 278.693324,29.8667328 C278.341236,29.5132845 278.167819,29.3365603 277.992651,29.3365603 C278.868493,28.0994914 279.393998,26.6856983 279.569167,25.6253534 C279.744335,24.3865172 279.919503,22.6192759 279.919503,20.1469052 L279.919503,13.4313879 L288.15242,13.4313879 C288.15242,13.2546638 287.9755,13.0779397 287.9755,12.7244914 C287.626914,11.8408707 287.451746,11.3106983 287.451746,10.95725 L290.429609,10.7805259 L291.130283,13.4313879 L298.312189,13.4313879 L298.312189,15.7288017 L282.54703,15.7288017 L282.54703,20.1469052 C282.54703,24.9184569 281.671188,28.4529397 280.09292,31.1038017 L280.09292,31.1038017 Z" id="Fill-17" fill="#FFFFFF" mask="url(#mask-6)"></path>
                        <path d="M311.624639,22.6206897 L316.704524,22.6206897 L316.704524,19.6163793 L311.624639,19.6163793 L311.624639,22.6206897 Z M311.449471,17.1422414 L316.529355,17.1422414 L316.529355,14.137931 L311.449471,14.137931 L311.449471,17.1422414 Z M304.442733,17.1422414 L309.172281,17.1422414 L309.172281,14.137931 L304.442733,14.137931 L304.442733,17.1422414 Z M304.442733,20.6767241 L304.442733,21.737069 L304.442733,22.6206897 L309.172281,22.6206897 L309.172281,19.6163793 L304.442733,19.6163793 L304.442733,20.6767241 Z M302.165544,31.1034483 C301.815207,30.9267241 301.114533,30.5732759 300.413859,30.0431034 C300.063523,29.8663793 299.888354,29.6896552 299.888354,29.6896552 C300.764196,28.4525862 301.289702,27.0387931 301.46487,25.8017241 C301.815207,24.7413793 301.815207,22.9741379 301.815207,20.5 L301.815207,11.487069 L319.156882,11.487069 L319.156882,27.7456897 C319.33205,29.6896552 318.281039,30.5732759 316.354187,30.5732759 L313.551492,30.5732759 C313.376323,29.8663793 313.201155,28.9827586 313.025987,28.2758621 L314.076997,28.2758621 L315.128008,28.2758621 C316.179018,28.2758621 316.704524,27.9224138 316.529355,27.0387931 L316.529355,24.5646552 L311.449471,24.5646552 L311.449471,30.2198276 L308.821944,30.2198276 L308.821944,24.5646552 L303.917228,24.5646552 C304.092397,27.0387931 303.391723,29.1594828 302.165544,31.1034483 L302.165544,31.1034483 Z" id="Fill-18" fill="#FFFFFF" mask="url(#mask-6)"></path>
                        <path d="M336.323738,21.0305259 L334.395134,19.4400086 C335.270976,18.5563879 336.498907,17.1425948 338.075423,15.3753534 L338.250591,15.1986293 L340.177444,16.6124224 C339.126433,18.2029397 337.725086,19.6167328 336.323738,21.0305259 L336.323738,21.0305259 Z M326.689474,21.0305259 C325.988801,20.1469052 324.93779,18.9098362 323.536443,17.1425948 C323.361274,16.7891466 323.186106,16.6124224 323.009186,16.4356983 L324.93779,15.0219052 C326.163969,16.4356983 327.565317,17.8494914 328.616327,19.2632845 L326.689474,21.0305259 Z M322.660601,14.1382845 L322.660601,11.6641466 L340.878117,11.6641466 L340.878117,14.1382845 L332.995538,14.1382845 L332.995538,21.9141466 L341.75396,21.9141466 L341.75396,24.3865172 L332.995538,24.3865172 L332.995538,31.1038017 L330.368012,31.1038017 L330.368012,24.3865172 L321.60959,24.3865172 L321.60959,21.9141466 L330.368012,21.9141466 L330.368012,14.1382845 L322.660601,14.1382845 Z" id="Fill-19" fill="#FFFFFF" mask="url(#mask-6)"></path>
                        <path d="M348.059673,27.5689655 L358.569779,27.5689655 L358.569779,23.6810345 L348.059673,23.6810345 L348.059673,27.5689655 Z M345.432146,31.1034483 L345.432146,21.3836207 L361.197305,21.3836207 L361.197305,31.1034483 L358.744947,31.1034483 L358.744947,29.8663793 L348.234841,29.8663793 L348.234841,31.1034483 L345.432146,31.1034483 Z M361.547642,20.6767241 C361.372474,20.5 361.197305,20.1465517 360.846968,19.7931034 C360.496631,19.4396552 360.321463,19.262931 360.146295,19.0862069 C358.920115,19.0862069 356.818094,19.262931 354.190568,19.262931 C351.212705,19.4396552 349.110683,19.4396552 347.884504,19.4396552 C346.483157,19.6163793 345.432146,19.6163793 344.906641,19.7931034 L343.680462,17.3189655 C344.556304,16.9655172 345.256978,16.4353448 346.13282,15.7284483 C348.059673,14.137931 349.986526,12.1939655 351.563041,10.4267241 L354.365736,11.6637931 C352.263715,13.6077586 350.336862,15.5517241 348.234841,17.1422414 L351.387873,17.1422414 C354.365736,16.9655172 356.642926,16.9655172 358.219442,16.9655172 L355.942252,14.4913793 L357.869105,13.0775862 C360.321463,15.375 362.248316,17.4956897 364,19.0862069 L361.547642,20.6767241 Z" id="Fill-20" fill="#FFFFFF" mask="url(#mask-6)"></path>
                    </g>
                </g>
            </g>
        </g>
    </g>
</svg>